<svg xmlns="http://www.w3.org/2000/svg" width="32" height="32" viewBox="0 0 32 32">
    <g fill="#FFF" fill-rule="nonzero">
        <path d="M15.896 0C7.13 0 0 7.176 0 16s7.13 16 15.896 16c8.767 0 15.896-7.176 15.896-16S24.663 0 15.896 0zm0 29.479C8.478 29.479 2.505 23.467 2.505 16S8.478 2.521 15.896 2.521 29.288 8.533 29.288 16s-5.974 13.479-13.392 13.479z"/>
        <path d="M23.314 20.897c-.578-.388-1.348-.194-1.734.388 0 .048-1.782 2.812-5.684 2.812-3.853 0-5.588-2.667-5.684-2.812a1.186 1.186 0 0 0-1.686-.388c-.578.34-.77 1.115-.433 1.697.096.145 2.553 3.976 7.803 3.976s7.708-3.782 7.804-3.976c.337-.582.193-1.358-.386-1.697zM8.719 18.521c0 .34.289.63.626.63a.64.64 0 0 0 .626-.63v-.824h.964v.824c0 .34.289.63.626.63a.64.64 0 0 0 .626-.63v-.824h.578c.386 0 .723-.34.723-.727V9.26a.743.743 0 0 0-.723-.727h-.578v-.678a.64.64 0 0 0-.626-.63.64.64 0 0 0-.626.63v.678H9.97v-.678a.64.64 0 0 0-.626-.63.64.64 0 0 0-.626.63v.727c-1.3.242-2.12 1.163-2.12 2.521 0 .873.434 1.503.964 1.842-.675.437-1.06 1.164-1.06 2.037 0 1.454.867 2.424 2.264 2.618v.921h-.048zm.722-8.388h2.264v2.134H9.441c-.77 0-1.204-.388-1.204-1.067 0-.679.434-1.067 1.204-1.067zm-1.348 4.849c0-.727.481-1.164 1.252-1.164h2.36v2.327h-2.36c-.77 0-1.252-.484-1.252-1.163zM24.278 12.994c.53-.34.963-.97.963-1.842 0-1.358-.819-2.28-2.12-2.522v-.727a.64.64 0 0 0-.625-.63.64.64 0 0 0-.627.63v.679h-.963v-.679a.64.64 0 0 0-.626-.63.64.64 0 0 0-.626.63v.679h-.579a.743.743 0 0 0-.722.727v7.66c0 .389.337.728.722.728h.579v.824c0 .34.289.63.626.63a.64.64 0 0 0 .626-.63v-.824h.963v.824c0 .34.29.63.627.63a.64.64 0 0 0 .626-.63v-.873c1.397-.193 2.264-1.163 2.264-2.618-.048-.872-.434-1.648-1.108-2.036zm-.723-1.794c0 .679-.433 1.067-1.204 1.067h-2.264v-2.134h2.264c.77 0 1.204.388 1.204 1.067zm-1.108 4.945h-2.36v-2.327h2.36c.771 0 1.253.437 1.253 1.164 0 .679-.482 1.163-1.253 1.163z"/>
    </g>
</svg>
